<svg xmlns="http://www.w3.org/2000/svg" width="960" height="540" viewBox="0 0 960 540" font-family="Segoe UI, Arial" stroke="none">
  <rect width="960" height="540" fill="#0f172a"/>
  <rect x="40" y="40" width="880" height="460" rx="24" fill="#19233b" stroke="#1e3a8a" stroke-width="2"/>
  <text x="80" y="90" fill="#f8fafc" font-size="34" font-weight="600">Parcel Dashboard Highlights</text>
  <text x="80" y="128" fill="#94a3b8" font-size="18">Snapshot of the primary delivery operations screen</text>
  <rect x="80" y="160" width="520" height="300" rx="18" fill="#1f2937" stroke="#334155" stroke-width="2"/>
  <text x="110" y="200" fill="#38bdf8" font-size="22" font-weight="600">Live KPIs</text>
  <text x="110" y="228" fill="#cbd5f5" font-size="16">• Status breakdown with trend arrows</text>
  <text x="110" y="256" fill="#cbd5f5" font-size="16">• Urgent parcel alerts</text>
  <text x="110" y="284" fill="#cbd5f5" font-size="16">• Active route assignments</text>
  <rect x="80" y="320" width="520" height="140" rx="18" fill="#111927" stroke="#1f2937" stroke-width="2"/>
  <text x="110" y="360" fill="#fbbf24" font-size="20" font-weight="600">Filtering &amp; Search</text>
  <text x="110" y="390" fill="#cbd5f5" font-size="16">• Instant parcel lookup with GetX debounce</text>
  <text x="110" y="418" fill="#cbd5f5" font-size="16">• Status filter sheet with contextual tips</text>
  <rect x="640" y="200" width="240" height="220" rx="18" fill="#1d2538" stroke="#334155" stroke-width="2"/>
  <text x="760" y="240" fill="#a5b4fc" font-size="22" font-weight="600" text-anchor="middle">Drawer Actions</text>
  <text x="760" y="270" fill="#e2e8f0" font-size="16" text-anchor="middle">Dashboard overview</text>
  <text x="760" y="298" fill="#e2e8f0" font-size="16" text-anchor="middle">Log new parcel</text>
  <text x="760" y="326" fill="#e2e8f0" font-size="16" text-anchor="middle">Trigger filters</text>
  <text x="760" y="354" fill="#e2e8f0" font-size="16" text-anchor="middle">Support shortcut</text>
  <rect x="640" y="160" width="120" height="32" rx="16" fill="#2563eb"/>
  <text x="700" y="182" fill="#f8fafc" font-size="16" font-weight="600" text-anchor="middle">UX Notes</text>
  <text x="640" y="440" fill="#94a3b8" font-size="16">Optimized for desktop/tablet footprint</text>
  <text x="640" y="466" fill="#94a3b8" font-size="16">Consistent theme using 0xFF233556 palette</text>
</svg>
